# xmcd
#
# Track frame offsets:
#	150
#	11731
#	27656
#	49250
#	65215
#	87123
#	104427
#	117096
#	130855
#	145988
#	158253
#	179407
#	195292
#	205856
#	224200
#	243706
#	261953
#	277733
#	290658
#	303262
#	322447
#	335793
#
# Disc length: 4682 seconds
#
# Revision: 2
# Processed by: cddbd v1.5.2PL0 Copyright (c) Steve Scherf et al.
# Submitted via: EasyCDDAExtractor 7.0.3.1
#
DISCID=5e124816
DTITLE=Willie Nelson - The Essential Willie Nelson  (Disc-2) 
DYEAR=2015
DGENRE=Country
TTITLE0=On the Road Again
TTITLE1=Always on My Mind
TTITLE2=Pancho and Lefty (duet with Merle Haggard)
TTITLE3=To All the Girls I've Loved Before (duet with Julio Iglesias)
TTITLE4=City of New Orleans
TTITLE5=Seven Spanish Angels (with Ray Charles)
TTITLE6=Forgiving You Was Easy
TTITLE7=Highwayman (with the Highwaymen)
TTITLE8=Living in the Promiseland
TTITLE9=The End of Understanding (with the Highwaymen)
TTITLE10=Across the Borderline
TTITLE11=Still Is Still Moving to Me
TTITLE12=I Never Cared for You
TTITLE13=Just Breathe (feat. Lukas Nelson)
TTITLE14=I Wish I Didn't Love You So
TTITLE15=From Here to the Moon and Back (feat. Dolly Parton)
TTITLE16=The Wall
TTITLE17=Band of Brothers
TTITLE18=Who'll Buy My Memories? (Willie Nelson and Sister Bobbie)
TTITLE19=Unfair Weather Friend (with Merle Haggard)
TTITLE20=It's All Going to Pot (with Merle Haggard)
TTITLE21=Roll Me Up (feat. Snoop Dogg, Kris Kristofferson and Jamey Johnson)
EXTD=
EXTT0=
EXTT1=
EXTT2=
EXTT3=
EXTT4=
EXTT5=
EXTT6=
EXTT7=
EXTT8=
EXTT9=
EXTT10=
EXTT11=
EXTT12=
EXTT13=
EXTT14=
EXTT15=
EXTT16=
EXTT17=
EXTT18=
EXTT19=
EXTT20=
EXTT21=
PLAYORDER=
